<?xml version="1.0" standalone="no"?>
<!DOCTYPE svg PUBLIC "-//W3C//DTD SVG 20010904//EN"
 "http://www.w3.org/TR/2001/REC-SVG-20010904/DTD/svg10.dtd">
<svg version="1.0" xmlns="http://www.w3.org/2000/svg"
 width="240.000000pt" height="240.000000pt" viewBox="0 0 240.000000 240.000000"
 preserveAspectRatio="xMidYMid meet">
<metadata>
Created by potrace 1.14, written by Peter Selinger 2001-2017
</metadata>
<g transform="translate(0.000000,240.000000) scale(0.100000,-0.100000)"
fill="#000000" stroke="none">
<path d="M1065 2000 c-3 -5 -4 -14 -1 -18 13 -22 -15 -36 -71 -37 l-58 0 -3
-32 c-3 -32 -10 -37 -42 -34 -10 1 -16 -8 -18 -25 -3 -34 -2 -33 -38 -36 -28
-2 -30 -5 -31 -45 -2 -83 -2 -82 -30 -85 l-28 -3 -1 -110 c-1 -119 2 -139 21
-131 19 7 37 -9 40 -35 1 -13 3 -27 4 -31 0 -5 15 -8 31 -8 17 0 31 -3 31 -7
8 -47 6 -53 -20 -53 -37 0 -46 -10 -48 -55 0 -22 -1 -49 -2 -60 -1 -16 -8 -21
-28 -20 -27 0 -28 -1 -28 -57 0 -64 -2 -66 -36 -71 -18 -3 -24 -10 -24 -28 0
-13 6 -25 13 -25 6 -1 21 -2 33 -3 11 0 17 -6 14 -11 -13 -20 5 -50 28 -46 19
3 22 9 23 54 1 60 2 62 40 65 29 2 29 3 29 65 0 34 4 62 10 63 6 0 34 2 63 3
58 4 76 -11 62 -50 -6 -15 -16 -20 -37 -18 -28 2 -30 -1 -30 -35 -1 -89 -2
-90 -30 -93 -26 -3 -28 -6 -30 -53 -1 -27 -2 -56 -2 -62 -1 -8 -15 -13 -34
-13 -32 0 -33 -1 -34 -47 -3 -91 -6 -102 -24 -92 -25 13 -37 -9 -33 -60 5 -64
43 -79 50 -19 1 13 3 25 3 28 1 3 17 6 36 8 l36 2 -3 -72 -3 -73 -30 0 -30 0
-1 -92 -1 -93 33 0 c31 0 34 -3 34 -29 l0 -29 320 0 320 -1 0 30 c0 26 3 29
30 29 l31 0 -3 93 c-2 73 -6 92 -18 93 -8 1 -21 2 -27 3 -13 1 -19 131 -7 144
3 3 17 1 30 -5 21 -10 27 -25 23 -54 -1 -12 23 -22 42 -17 22 6 20 2 25 72 l3
53 -37 -4 -37 -3 0 65 c0 61 -2 65 -23 66 -32 2 -34 6 -36 71 -1 54 -3 58 -26
62 -34 4 -38 15 -33 72 3 36 1 49 -9 51 -7 0 -17 2 -23 3 -5 2 -15 3 -21 4
-16 1 -24 50 -10 58 18 12 126 10 127 -2 1 -5 2 -35 3 -65 1 -49 3 -55 22 -56
34 -2 40 -10 37 -51 -3 -59 4 -74 35 -70 21 3 27 9 27 28 0 19 6 25 30 29 25
4 30 10 31 33 1 25 -2 28 -23 24 -31 -6 -37 6 -37 73 l-1 55 -32 0 c-36 0 -36
0 -35 82 1 40 -1 43 -30 51 -49 12 -45 65 5 65 17 0 24 4 22 16 -4 29 12 56
34 57 11 1 25 2 29 3 5 0 8 54 8 119 l-1 117 -35 5 -34 5 -1 60 c0 40 -4 60
-12 61 -7 1 -19 2 -27 3 -8 0 -16 13 -18 28 -2 20 -9 27 -26 28 -27 2 -43 21
-35 43 9 22 -17 33 -70 30 -51 -2 -68 10 -62 42 3 15 -10 17 -120 19 -75 1
-126 -3 -130 -9z m184 -1464 c9 -6 7 -43 -2 -53 -9 -8 -84 -10 -105 -2 -20 8
-23 32 -8 57 6 10 99 8 115 -2z"/>
</g>
</svg>
